# AST/ASF file generated using VICON BodyLanguage
# -----------------------------------------------
:version 1.10
:name VICON
:units
  mass 1.0
  length 0.45
  angle deg
:documentation
   .ast/.asf automatically generated from VICON data using
   VICON BodyBuilder and BodyLanguage model FoxedUp or BRILLIANT.MOD
:root
   order TX TY TZ RX RY RZ
   axis XYZ
   position 0 0 0  
   orientation 0 0 0 
:bonedata
  begin
     id 1 
     name lhipjoint
     direction 0.711131 -0.61297 0.344326 
     length 2.29162 
     axis 0 0 0  XYZ
  end
  begin
     id 2 
     name lfemur
     direction 0.34202 -0.939693 0  
     length 6.71424  
     axis 0 0 20  XYZ
    dof rx ry rz
    limits (-160.0 20.0)
           (-70.0 70.0)
           (-60.0 70.0)
  end
  begin
     id 3 
     name ltibia
     direction 0.34202 -0.939693 0   
     length 6.7087   
     axis 0 0 20   XYZ
    dof rx
    limits (-10.0 170.0)
  end
  begin
     id 4 
     name lfoot
     direction 0.0230374 -0.0632947 0.997729   
     length 1.56743   
     axis -90 7.62852e-016 20   XYZ
    dof rx rz
    limits (-45.0 90.0)
           (-70.0 20.0)
  end
  begin
     id 5 
     name ltoes
     direction 1.53585e-011 -4.21885e-011 1   
     length 0.802914   
     axis -90 7.62852e-016 20   XYZ
    dof rx
    limits (-90.0 20.0)
  end
  begin
     id 6 
     name rhipjoint
     direction -0.733192 -0.592884 0.333043   
     length 2.36925  
     axis 0 0 0  XYZ 
  end
  begin
     id 7 
     name rfemur
     direction -0.34202 -0.939693 0   
     length 6.67027   
     axis 0 0 -20   XYZ
    dof rx ry rz
    limits (-160.0 20.0)
           (-70.0 70.0)
           (-70.0 60.0)
  end
  begin
     id 8 
     name rtibia
     direction -0.34202 -0.939693 0   
     length 6.6862   
     axis 0 0 -20   XYZ
    dof rx
    limits (-10.0 170.0)
 end
 begin
     id 9 
     name rfoot
     direction -0.0949739 -0.260939 0.960672   
     length 1.67698  
     axis -90 -7.62852e-016 -20   XYZ
    dof rx rz
    limits (-45.0 90.0)
           (-20.0 70.0)
  end
  begin
     id 10 
     name rtoes
     direction -1.5353e-011 -4.21868e-011 1   
     length 0.846298   
     axis -90 -7.62852e-016 -20   XYZ
    dof rx
    limits (-90.0 20.0)
  end
  begin
     id 11 
     name lowerback
     direction -0.0206828 0.999785 -0.00109866   
     length 2.04382   
     axis 0 0 0   XYZ
    dof rx ry rz
    limits (-20.0 45.0)
           (-30.0 30.0)
           (-30.0 30.0)
  end
  begin
     id 12 
     name upperback
     direction -0.0105003 0.999727 -0.0208904   
     length 2.04538   
     axis 0 0 0   XYZ
    dof rx ry rz
    limits (-20.0 45.0)
           (-30.0 30.0)
           (-30.0 30.0)
  end
  begin
     id 13 
     name thorax
     direction -0.000416255 0.999808 -0.0196023   
     length 2.0399   
     axis 0 0 0   XYZ
    dof rx ry rz
    limits (-20.0 45.0)
           (-30.0 30.0)
           (-30.0 30.0)
  end
  begin
     id 14 
     name lowerneck
     direction 0.0627861 0.989205 0.13241   
     length 1.46207   
     axis 0 0 0   XYZ
    dof rx ry rz
    limits (-20.0 45.0)
           (-30.0 30.0)
           (-30.0 30.0)
  end
  begin
     id 15 
     name upperneck
     direction 0.00627179 0.994526 0.104303   
     length 1.41419   
     axis 0 0 0   XYZ
    dof rx ry rz
    limits (-20.0 45.0)
           (-30.0 30.0)
           (-30.0 30.0)
  end
  begin
     id 16
     name head
     direction -0.00443838 0.999688 0.0245968  
     length 1.50718  
     axis 0 0 0   XYZ
    dof rx ry rz
    limits (-20.0 45.0)
           (-30.0 30.0)
           (-30.0 30.0)
  end
  begin
     id 17 
     name lclavicle
     direction 0.758742 0.650995 -0.0227258  
     length 2.86888  
     axis 0 0 0   XYZ
    dof ry rz
    limits (-20.0 10.0)
           (0.0 20.0)
  end
  begin
     id 18 
     name lhumerus
     direction 1 -4.48962e-011 1.06664e-027   
     length 4.65776   
     axis -180 -30 -90   XYZ
    dof rx ry rz
    limits (-60.0 90.0)
           (-90.0 90.0)
           (-90.0 90.0)
  end
  begin
     id 19
     name lradius
     direction 1 -4.48968e-011 1.40404e-026   
     length 3.55539   
     axis -180 -30 -90   XYZ
    dof rx
    limits (-10.0 170.0)
  end
  begin
     id 20
     name lwrist
     direction 1 -4.48976e-011 3.32647e-026   
     length 1.77769   
     axis -2.20186e-014 90 90   XYZ
    dof ry
    limits (-180.0 0.0)
 end
  begin
     id 21 
     name lhand
     direction 1 -4.48982e-011 6.65293e-026   
     length 0.707264   
     axis -4.24514e-014 90 90   XYZ
    dof rx rz
    limits (-90.0 90.0)
           (-45.0 45.0)
  end
  begin
     id 22 
     name lfingers
     direction 1 -4.48966e-011 1.33059e-025   
     length 0.570215   
     axis -8.49028e-014 90 90   XYZ
    dof rx
    limits (0.0 90.0)
  end
  begin
     id 23
     name lthumb
     direction 0.707107 -6.3493e-011 0.707107   
     length 0.818718   
     axis -90 45 2.85299e-015   XYZ
    dof rx rz
    limits (-45.0 45.0)
           (-45.0 45.0)
  end
  begin
     id 24 
     name rclavicle
     direction -0.870343 0.482028 -0.100759   
     length 3.2251  
     axis 0 0 0   XYZ 
    dof ry rz
    limits (-10.0 20.0)
           (-20.0 0.0)
  end
  begin
     id 25 
     name rhumerus
     direction -1 -4.48974e-011 -9.45849e-028  
     length 4.71925   
     axis -180 30 90   XYZ
    dof rx ry rz
    limits (-90.0 60.0)
           (-90.0 90.0)
           (-90.0 90.0)
  end
  begin
     id 26 
     name rradius
     direction -1 -4.48965e-011 1.17607e-026   
     length 3.5699   
     axis -180 30 90   XYZ
    dof rx
    limits (-10.0 170.0)
  end
  begin
     id 27 
     name rwrist
     direction -1 -4.48968e-011 3.32647e-026   
     length 1.78495   
     axis -2.20186e-014 -90 -90   XYZ
    dof ry
    limits (-180.0 0.0)
  end
  begin
     id 28
     name rhand
     direction -1 -4.48995e-011 6.65293e-026   
     length 0.507757   
     axis -4.24514e-014 -90 -90   XYZ
    dof rx rz
    limits (-90.0 90.0)
           (-45.0 45.0)
  end
  begin
     id 29
     name rfingers
     direction -1 -4.48864e-011 1.33059e-025   
     length 0.409367   
     axis -8.49028e-014 -90 -90   XYZ
    dof rx
    limits (0.0 90.0)
  end
  begin
     id 30
     name rthumb
     direction -0.707107 -6.3494e-011 0.707107   
     length 0.587771   
     axis -90 -45 -2.85299e-015   XYZ
    dof rx rz
    limits (-45.0 45.0)
           (-45.0 45.0)
  end
:hierarchy
  begin
    root lhipjoint rhipjoint lowerback
    lhipjoint lfemur
    lfemur ltibia
    ltibia lfoot
    lfoot ltoes
    rhipjoint rfemur
    rfemur rtibia
    rtibia rfoot
    rfoot rtoes
    lowerback upperback
    upperback thorax
    thorax lowerneck lclavicle rclavicle
    lowerneck upperneck
    upperneck head
    lclavicle lhumerus
    lhumerus lradius
    lradius lwrist
    lwrist lhand lthumb
    lhand lfingers
    rclavicle rhumerus
    rhumerus rradius
    rradius rwrist
    rwrist rhand rthumb
    rhand rfingers
  end

#!OML:ASF E:\Steps\Project 1\Capture day 1\Session 2\Subject.ASF
:FULLY-SPECIFIED
:DEGREES
1
root -1.10178 19.6077 20.4801 -152.368 -3.80522 178.679
lowerback -30.9567 -2.39519 -6.14169
upperback -2.00481 -1.83484 -0.0245969
thorax 14.0833 -1.53835 2.47547
lowerneck -4.20026 -2.81815 -1.24171
upperneck 12.842 -4.98034 5.5716
head 4.70784 -2.41107 1.63388
rclavicle -6.31141e-015 1.19271e-015
rhumerus -38.5099 -20.7941 -75.6551
rradius 30.3225
rwrist -2.13812
rhand -2.68153 -57.1999
rfingers 7.12502
rthumb 23.0196 -85.8452
lclavicle -6.31141e-015 1.19271e-015
lhumerus -31.5571 6.29784 79.4855
lradius 22.0488
lwrist -3.57627
lhand -21.2887 -11.7365
lfingers 7.12502
lthumb 5.09558 18.1823
rfemur -24.913 5.09951 19.925
rtibia 7.79191
rfoot -18.9743 -1.99886
rtoes -25.8465
lfemur -24.212 -6.89263 -22.6755
ltibia 7.01294
lfoot -7.19373 -1.65498
ltoes -9.48336
2
root -1.09769 19.6102 20.4747 -152.632 -3.89184 178.628
lowerback -30.7409 -2.46215 -6.248
upperback -1.93234 -1.87543 -0.0291545
thorax 14.0784 -1.55517 2.51868
lowerneck -4.27066 -2.82987 -1.10079
upperneck 12.7396 -4.96907 5.42916
head 4.68146 -2.4019 1.56742
rclavicle 1.49089e-016 2.06736e-014
rhumerus -38.4153 -20.7998 -75.7055
rradius 30.1902
rwrist -2.11025
rhand -2.77713 -57.1538
rfingers 7.12502
rthumb 22.9278 -85.8105
lclavicle 1.49089e-016 2.06736e-014
lhumerus -31.6083 6.28146 79.4356
lradius 22.085
lwrist -3.53604
lhand -21.2592 -11.7792
lfingers 7.12502
lthumb 5.12411 18.1389
rfemur -24.4722 5.20096 19.8994
rtibia 7.61297
rfoot -19.0185 -2.20829
rtoes -25.9898
lfemur -23.8105 -6.73944 -22.7606
ltibia 6.86372
lfoot -7.08863 -1.86789
ltoes -8.90323
3
root -1.08497 19.6194 20.4554 -153.295 -4.18692 178.437
lowerback -30.2588 -2.68116 -6.61028
upperback -1.71699 -2.00905 -0.0182047
thorax 14.1357 -1.61961 2.68837
lowerneck -4.36496 -2.80921 -1.06398
upperneck 12.6528 -4.92775 5.43053
head 4.66867 -2.3753 1.56335
rclavicle -1.64991e-014 2.78299e-015
rhumerus -38.3934 -20.8688 -75.7386
rradius 30.2103
rwrist -2.11867
rhand -2.79281 -57.1708
rfingers 7.12502
rthumb 22.9128 -85.8294
lclavicle -1.64991e-014 2.78299e-015
lhumerus -31.584 6.34774 79.3501
lradius 22.0499
lwrist -3.57183
lhand -21.171 -12.0439
lfingers 7.12502
lthumb 5.20929 17.8721
rfemur -23.2559 5.66995 19.7479
rtibia 7.02992
rfoot -18.9268 -3.03381
rtoes -25.71
lfemur -22.8677 -6.44398 -23.0009
ltibia 6.65139
lfoot -6.91731 -2.47555
ltoes -8.2719
4
root -1.08554 19.6202 20.455 -153.351 -4.1563 178.412
lowerback -30.2347 -2.6969 -6.65841
upperback -1.70542 -2.01117 -0.0281714
thorax 14.1389 -1.62273 2.70331
lowerneck -4.33953 -2.70955 -1.12734
upperneck 12.5338 -4.77721 5.48594
head 4.62526 -2.30039 1.60063
rclavicle 7.40473e-015 1.74931e-014
rhumerus -38.3993 -20.8011 -75.7918
rradius 30.2271
rwrist -2.13289
rhand -2.81166 -57.3182
rfingers 7.12502
rthumb 22.8947 -85.979
lclavicle 7.40473e-015 1.74931e-014
lhumerus -31.6089 6.51543 79.2465
lradius 21.9656
lwrist -3.68092
lhand -21.1789 -12.3358
lfingers 7.12502
lthumb 5.20165 17.5804
rfemur -23.1655 5.78015 19.6959
rtibia 6.99085
rfoot -18.8392 -3.14142
rtoes -25.4611
lfemur -22.8175 -6.23248 -23.0992
ltibia 6.67893
lfoot -6.91799 -2.65312
ltoes -8.44642
5
root -1.08684 19.6198 20.4566 -153.342 -4.15712 178.436
lowerback -30.2627 -2.69541 -6.6395
upperback -1.71395 -2.01714 -0.0212986
thorax 14.142 -1.62523 2.69722
lowerneck -4.28251 -2.76384 -1.12892
upperneck 12.5499 -4.85598 5.48089
head 4.62325 -2.34195 1.59563
rclavicle -4.62174e-015 -1.39149e-014
rhumerus -38.3837 -20.7216 -75.8326
rradius 30.2068
rwrist -2.10348
rhand -2.90592 -57.4119
rfingers 7.12502
rthumb 22.8043 -86.0839
lclavicle -4.62174e-015 -1.39149e-014
lhumerus -31.6635 6.50914 79.223
lradius 21.9364
lwrist -3.64373
lhand -21.2161 -12.3964
lfingers 7.12502
lthumb 5.16572 17.5206
rfemur -23.1648 5.85742 19.7024
rtibia 6.95452
rfoot -18.7939 -3.2234
rtoes -25.834
lfemur -22.8432 -6.10437 -23.1061
ltibia 6.68327
lfoot -6.86517 -2.74081
ltoes -8.62295
6
root -1.08847 19.619 20.4573 -153.313 -4.09835 178.449
lowerback -30.3477 -2.66182 -6.63737
upperback -1.69948 -1.96661 -0.0329854
thorax 14.1911 -1.60408 2.70061
lowerneck -4.21993 -2.76217 -1.17733
upperneck 12.64 -4.88264 5.58722
head 4.64479 -2.35627 1.63491
rclavicle 8.10048e-015 -1.43125e-014
rhumerus -38.3228 -20.7533 -75.8257
rradius 30.1559
rwrist -2.05451
rhand -2.92601 -57.4627
rfingers 7.12502
rthumb 22.785 -86.1371
lclavicle 8.10048e-015 -1.43125e-014
lhumerus -31.6343 6.46679 79.2194
lradius 21.8794
lwrist -3.66861
lhand -21.2323 -12.1189
lfingers 7.12502
lthumb 5.15005 17.7985
rfemur -23.2019 6.11701 19.647
rtibia 6.95361
rfoot -18.7494 -3.44453
rtoes -25.979
lfemur -22.8677 -6.06408 -23.1167
ltibia 6.68083
lfoot -6.87471 -2.76257
ltoes -8.65603
7
root -1.09077 19.6186 20.4571 -153.244 -4.04952 178.408
lowerback -30.4753 -2.67617 -6.71087
upperback -1.69465 -1.95545 -0.0310427
thorax 14.2532 -1.60709 2.742
lowerneck -4.06833 -2.59677 -1.29003
upperneck 12.5437 -4.64853 5.65967
head 4.58494 -2.24621 1.69182
rclavicle -2.06239e-014 1.55052e-014
rhumerus -38.2491 -20.6899 -75.8272
rradius 30.0994
rwrist -2.10741
rhand -2.90476 -57.5654
rfingers 7.12502
rthumb 22.8054 -86.2372
lclavicle -2.06239e-014 1.55052e-014
lhumerus -31.6144 6.62258 79.1719
lradius 21.7803
lwrist -3.90009
lhand -21.2289 -11.7213
lfingers 7.12502
lthumb 5.15333 18.196
rfemur -23.2731 6.25082 19.5502
rtibia 6.95956
rfoot -18.719 -3.54901
rtoes -25.4842
lfemur -22.9182 -6.09669 -23.1781
ltibia 6.67564
lfoot -6.95625 -2.78535
ltoes -8.47576
8
root -1.09311 19.6185 20.4571 -153.18 -4.04287 178.347
lowerback -30.5775 -2.73048 -6.78841
upperback -1.68612 -1.9963 -0.0196817
thorax 14.3139 -1.63313 2.77556
lowerneck -4.06388 -2.60588 -1.34173
upperneck 12.5161 -4.65239 5.66337
head 4.57701 -2.24963 1.7015
rclavicle 1.04362e-015 7.55382e-015
rhumerus -38.1749 -20.5798 -75.8688
rradius 30.0885
rwrist -2.19233
rhand -2.83616 -57.6662
rfingers 7.12502
rthumb 22.8712 -86.33
lclavicle 1.04362e-015 7.55382e-015
lhumerus -31.613 6.88246 79.0929
lradius 21.7022
lwrist -4.13735
lhand -21.2238 -11.5068
lfingers 7.12502
lthumb 5.15831 18.4105
rfemur -23.3234 6.2579 19.4592
rtibia 6.9401
rfoot -18.7597 -3.54414
rtoes -25.327
lfemur -22.9628 -6.13511 -23.2576
ltibia 6.65745
lfoot -6.99183 -2.78033
ltoes -8.49018
9
root -1.09392 19.6182 20.4569 -153.189 -3.97096 178.371
lowerback -30.6229 -2.72301 -6.76892
upperback -1.64795 -1.98428 -0.0160835
thorax 14.3774 -1.62702 2.77224
lowerneck -4.12232 -2.78729 -1.28195
upperneck 12.3992 -4.88546 5.644
head 4.55827 -2.35956 1.67271
rclavicle -8.19987e-015 -1.59028e-015
rhumerus -38.116 -20.5946 -75.9066
rradius 30.1308
rwrist -2.17328
rhand -2.88215 -57.5481
rfingers 7.12502
rthumb 22.8271 -86.2173
lclavicle -8.19987e-015 -1.59028e-015
lhumerus -31.5733 7.03615 79.031
lradius 21.6561
lwrist -4.2422
lhand -21.2289 -11.4957
lfingers 7.12502
lthumb 5.15332 18.4216
rfemur -23.3225 6.33456 19.46
rtibia 6.93164
rfoot -18.7594 -3.55082
rtoes -25.6958
lfemur -22.9242 -6.11371 -23.2555
ltibia 6.59569
lfoot -6.97696 -2.71121
ltoes -8.42083
10
root -1.09484 19.6177 20.4581 -153.179 -3.98526 178.41
lowerback -30.6343 -2.71353 -6.71278
upperback -1.64806 -1.99058 -0.0157843
thorax 14.3821 -1.62644 2.73949
lowerneck -4.30051 -2.87201 -1.15436
upperneck 12.5637 -5.00184 5.47318
head 4.63609 -2.4147 1.58877
rclavicle 4.96962e-015 -1.35174e-014
rhumerus -38.158 -20.5752 -75.9503
rradius 30.2463
rwrist -2.24926
rhand -3.0716 -57.4453
rfingers 7.12502
rthumb 22.6452 -86.1368
lclavicle 4.96962e-015 -1.35174e-014
lhumerus -31.5668 7.06551 78.9821
lradius 21.6114
lwrist -4.28012
lhand -21.1425 -11.6123
lfingers 7.12502
lthumb 5.23677 18.303
rfemur -23.354 6.21578 19.5296
rtibia 6.94153
rfoot -18.7508 -3.42753
rtoes -25.9809
lfemur -22.9341 -6.08698 -23.2114
ltibia 6.54383
lfoot -6.88208 -2.74015
ltoes -8.21888
11
root -1.09788 19.617 20.4592 -153.166 -4.10705 178.379
lowerback -30.6249 -2.75665 -6.69871
upperback -1.65559 -2.05228 -0.0241814
thorax 14.3745 -1.65268 2.69792
lowerneck -4.40161 -2.90648 -1.00104
upperneck 12.6808 -5.04703 5.2886
head 4.68267 -2.4368 1.50189
rclavicle 6.26172e-015 1.59028e-014
rhumerus -38.1757 -20.5388 -75.9942
rradius 30.301
rwrist -2.30798
rhand -3.07692 -57.5959
rfingers 7.12502
rthumb 22.6401 -86.288
lclavicle 6.26172e-015 1.59028e-014
lhumerus -31.5941 7.04644 78.9445
lradius 21.5818
lwrist -4.29163
lhand -21.0064 -11.6298
lfingers 7.12502
lthumb 5.36814 18.2823
rfemur -23.3055 6.10316 19.5185
rtibia 6.83145
rfoot -18.7717 -3.41941
rtoes -26.0509
lfemur -22.9681 -6.12985 -23.2297
ltibia 6.5653
lfoot -6.9115 -2.86315
ltoes -8.4901
